<svg xmlns="http://www.w3.org/2000/svg" width="14" height="8" viewBox="0 0 14 8">
  <defs>
    <style>
      .cls-1 {
        fill: #117979;
        fill-rule: evenodd;
      }
    </style>
  </defs>
  <path id="_" data-name="&gt;" class="cls-1" d="M1614.25,48.679a0.677,0.677,0,0,1,0-1.054,2.671,2.671,0,0,1,1.48-.641s2.9,3.156,4.43,4.64a1.021,1.021,0,0,0,1.68,0c1.53-1.49,4.37-4.64,4.37-4.64a2.614,2.614,0,0,1,1.54.641,0.708,0.708,0,0,1,0,1.054s-4.08,4.14-5.96,5.969a1.166,1.166,0,0,1-1.64,0C1618.19,52.737,1614.25,48.679,1614.25,48.679Z" transform="translate(-1614 -47)"/>
</svg>
